<?xml version="1.0" encoding="iso-8859-1"?>
<!-- Uploaded to: SVG Repo, www.svgrepo.com, Generator: SVG Repo Mixer Tools -->
<svg fill="#000000" height="800px" width="800px" version="1.1" id="Layer_1" xmlns="http://www.w3.org/2000/svg" xmlns:xlink="http://www.w3.org/1999/xlink" 
	 viewBox="0 0 500.562 500.562" xml:space="preserve">
<g>
	<g>
		<path d="M498.281,430.548L330.814,95.614c-4.267-7.467-11.733-11.733-19.2-11.733c-8.533,0-16,4.267-19.2,11.733l-35.2,70.4
			l-50.133-112c-3.2-7.467-10.667-12.8-19.2-12.8s-16,5.333-19.2,12.8L2.281,429.481c-3.2,6.4-3.2,13.867,1.067,20.267
			c3.2,6.4,9.6,9.6,17.067,9.6h458.667c7.467,0,13.867-2.133,18.133-8.533C501.481,444.414,501.481,436.948,498.281,430.548z
			 M52.414,417.748l135.467-304l135.467,304H52.414z M368.147,416.681l-89.6-201.6l33.067-65.067l133.333,266.667H368.147z"/>
	</g>
</g>
</svg>